<svg xmlns="http://www.w3.org/2000/svg" width="31.33" height="31.33" viewBox="0 0 31.33 31.33">
  <path id="linkedin-round-line" d="M13.767,12.724h3.026v1.551h.047a3.352,3.352,0,0,1,2.988-1.551c3.2,0,3.787,1.992,3.787,4.586v5.272H20.458V17.9c0-1.118-.019-2.547-1.645-2.547-1.645,0-1.9,1.212-1.9,2.471v4.755H13.757V12.724ZM15.665,0A15.657,15.657,0,1,1,4.586,4.586,15.657,15.657,0,0,1,15.665,0ZM25.936,5.385a14.52,14.52,0,1,0,4.257,10.271A14.473,14.473,0,0,0,25.936,5.385Zm-14.359,4.6A1.645,1.645,0,1,1,9.933,8.345,1.64,1.64,0,0,1,11.577,9.989ZM8.288,12.724h3.289v9.858H8.288Z" fill="#fff" fill-rule="evenodd"/>
</svg>
