<svg xmlns="http://www.w3.org/2000/svg" width="105.467" height="34.8" viewBox="0 0 105.467 34.8">
  <g id="Group_15766" data-name="Group 15766" transform="translate(-674.143 -445)">
    <g id="Group_15764" data-name="Group 15764" transform="translate(674.143 445.188)">
      <path id="Path_25211" data-name="Path 25211" d="M66.052,133.058V142.5h-2.8v-8.759q0-2.38-1.871-2.381a1.878,1.878,0,0,0-1.871,1.871V142.5H56.655v-9.269a1.831,1.831,0,0,0-.527-1.332,1.8,1.8,0,0,0-1.346-.539q-1.755,0-1.726,1.616l.086,9.524h-3v-13.71l2.913.028v.714a3.2,3.2,0,0,1,2.451-.743,3.258,3.258,0,0,1,1.6.539,2.937,2.937,0,0,1,1.2,1.118,4.679,4.679,0,0,1,1.454-1.132,3.691,3.691,0,0,1,1.71-.525,4.647,4.647,0,0,1,3.192,1.252,3.909,3.909,0,0,1,1.4,3.015" transform="translate(-50.143 -128.791)" fill="#78cfec"/>
      <path id="Path_25212" data-name="Path 25212" d="M146.169,128.943l-4.512,19.394-2.515-.029,1.187-5.733-3.671-13.632h2.971l2,9.254,1.571-9.254Z" transform="translate(-120.405 -128.914)" fill="#78cfec"/>
      <path id="Path_25213" data-name="Path 25213" d="M83.427,299.741a1.209,1.209,0,1,1-1.231,1.174,1.22,1.22,0,0,1,1.231-1.174" transform="translate(-76.175 -267.628)" fill="#1d5c96"/>
      <path id="Path_25214" data-name="Path 25214" d="M106.415,302.139a1.215,1.215,0,1,1,1.224-1.171,1.2,1.2,0,0,1-1.224,1.171" transform="translate(-94.881 -267.601)" fill="#1d5c96"/>
      <path id="Path_25215" data-name="Path 25215" d="M89.046,246.746q.3.4.591.8l.23.311H90.1l.152-.206q.213-.29.428-.579.393-.527.79-1.052c.288-.382.581-.771.873-1.163h-.016q-2.344.009-4.688.007c.233.313.466.624.7.931s.476.636.713.954" transform="translate(-80.594 -223.052)" fill="#1d5c96"/>
      <path id="Path_25216" data-name="Path 25216" d="M71.012,234.467c-.461.015-.922.007-1.384,0a.829.829,0,0,0-.608.232,6.082,6.082,0,0,1-1.572,1.141,5.367,5.367,0,0,1-2,.483c-.846.043-1.692.078-2.539.089-.334.451-.67.9-1,1.337q-.4.525-.789,1.051-.214.288-.426.577l-.194.263a.14.14,0,0,1-.113.057h-.373a.141.141,0,0,1-.113-.057l-.272-.368q-.3-.4-.591-.8-.356-.477-.713-.953c-.271-.361-.546-.729-.821-1.1l-4.363,0a2,2,0,0,0-1.756.843,2.159,2.159,0,0,0-.4.893,1.934,1.934,0,0,0,.547,1.656,3.1,3.1,0,0,0,.655.467.315.315,0,0,1,.217.327.611.611,0,1,0,1.221.064c.012-.277.011-.555,0-.832a.6.6,0,0,0-.582-.591.81.81,0,0,1-.816-.7.76.76,0,0,1,.645-.865c.587-.031,1.177-.008,1.783-.008a5.38,5.38,0,0,0,3.052,5.043c-.05.048-.093.1-.143.135a3.8,3.8,0,0,0-1.2,1.7c-.078.216-.167.428-.238.647a.609.609,0,0,0,.6.845q3.245.006,6.489,0a.6.6,0,0,0,.621-.784,5.192,5.192,0,0,0-.971-1.946c-.1-.116-.213-.225-.344-.364.1-.029.181-.054.262-.073a12.624,12.624,0,0,0,6.318-3.75,15.388,15.388,0,0,0,2.586-3.624c.045-.089.089-.179.133-.269v-.284a.741.741,0,0,0-.8-.481" transform="translate(-50.808 -214.615)" fill="#fff"/>
      <path id="Path_25217" data-name="Path 25217" d="M82.369,215.65q-.431-.582-.863-1.165c-.767-1.03-1.544-2.054-2.3-3.093a3.78,3.78,0,0,1-.7-1.912,4.065,4.065,0,0,1,4.675-4.4,4.017,4.017,0,0,1,2.226,1.125,3.929,3.929,0,0,1,1.1,1.969,3.875,3.875,0,0,1-.61,3.216c-.823,1.157-1.692,2.28-2.54,3.418-.208.28-.414.561-.621.841ZM83.9,209.1a1.348,1.348,0,1,0-1.349,1.345A1.358,1.358,0,0,0,83.9,209.1" transform="translate(-73.166 -190.707)" fill="#78cfec"/>
    </g>
    <g id="Group_15765" data-name="Group 15765" transform="translate(701.548 445)">
      <path id="Path_25218" data-name="Path 25218" d="M205.157,125.162h-1.348a7.785,7.785,0,0,0-7.779,7.768v19.264a7.785,7.785,0,0,0,7.779,7.768h1.348a7.42,7.42,0,0,0,5.472-2.274,7.683,7.683,0,0,0,2.308-5.478v-7.029h-8.765v4.927h3.579v.462a7.9,7.9,0,0,1-.467,3.183,2.765,2.765,0,0,1-2.7,1.386q-3.372,0-3.371-4.339V134.168q0-4.338,3.138-4.339,3.4,0,3.4,5.36v3.093h5.186v-5.342a7.791,7.791,0,0,0-7.779-7.779" transform="translate(-196.029 -125.162)" fill="#fff"/>
      <path id="Path_25219" data-name="Path 25219" d="M294.7,162.1h5.394V128.441l-5.394-.052Z" transform="translate(-276.165 -127.782)" fill="#fff"/>
      <path id="Path_25220" data-name="Path 25220" d="M436.482,146.075,430.9,128.441h-5.519l.156,33.659h4.979V148.593l5.446,13.507h5.5V128.441h-4.979Z" transform="translate(-382.298 -127.825)" fill="#fff"/>
      <path id="Path_25221" data-name="Path 25221" d="M536.909,128.474h-5.394l-3.319,15.04-3.164-15.04h-5.394l5.7,23.7.052,2.178v7.779h5.394q0-.57-.078-3.293t-.078-4.123a12.818,12.818,0,0,1,.156-2.645Z" transform="translate(-458.847 -127.852)" fill="#fff"/>
      <path id="Path_25222" data-name="Path 25222" d="M342.7,145.811l-5.579-17.634H331.6l.156,33.659h4.979V148.329l5.446,13.507h5.5V128.177H342.7Z" transform="translate(-306.131 -127.61)" fill="#fff"/>
    </g>
  </g>
</svg>
