<svg xmlns="http://www.w3.org/2000/svg" width="86.321" height="99.69" viewBox="0 0 86.321 99.69">
  <path id="Path_13092" data-name="Path 13092" d="M393.689,391.928a99.775,99.775,0,0,1,13.017-6.566l.012-.007v0c.071-.03.141-.063.213-.093,1-.413,1.463,1.1.691,1.639l-8.359,5.85c14.871-.98,30.592-2.488,43.044-11.336,12.548-8.915,18.134-23.225,13.063-37.257-12.624.836-25.891-4.855-34.334-13.923-3.433-3.688-8.519-11.846-1.182-14.591,6.924-2.591,16.848,4.042,21.963,7.943a46.326,46.326,0,0,1,14.665,18.73c.947-.084,1.878-.2,2.786-.363,8.113-1.429,16.468-6.187,18.5-14.729,2.578-10.846-5.641-20.473-12.337-27.889-.359-.4.217-.984.591-.592,6.5,6.8,13.344,14.514,13.546,24.477.166,8.2-5.062,14.58-12.254,17.936A32.946,32.946,0,0,1,457.132,344c2.965,8.253,2.974,17.29-1.693,25.691-10.964,19.733-34.51,23.279-55.14,24.778l4.957,2.206c1.052.468.141,2.013-.9,1.548l-7.855-3.495-.36.023a.745.745,0,0,1-.8-.54l-1.646-.732a.9.9,0,0,1,0-1.548m59.541-52.535a46.235,46.235,0,0,0-15.572-16.538,43.822,43.822,0,0,0-10.5-5.075,13.266,13.266,0,0,0-4.641-.8c-4.661.3-5.255,4.619-3.3,8.117,6.423,11.491,22.31,17.842,35.48,17.33q-.648-1.522-1.465-3.036" transform="translate(-393.25 -298.617)" fill="#7ec242"/>
</svg>
