<svg xmlns="http://www.w3.org/2000/svg" width="21.5" height="21.5" viewBox="0 0 21.5 21.5">
  <g id="Group_15767" data-name="Group 15767" transform="translate(-839.25 -2041.349)">
    <path id="Path_25187" data-name="Path 25187" d="M18,7.25A10.75,10.75,0,1,0,28.75,18,10.75,10.75,0,0,0,18,7.25Z" transform="translate(832 2034.099)" fill="#77cfed"/>
    <path id="Path_25188" data-name="Path 25188" d="M7.25,18a10.757,10.757,0,0,1,12-10.678,10.751,10.751,0,0,0,0,21.356A10.757,10.757,0,0,1,7.25,18Z" transform="translate(832 2034.099)" fill="#1d5c96" fill-rule="evenodd"/>
    <path id="Path_25189" data-name="Path 25189" d="M18,8.75A9.25,9.25,0,1,0,27.25,18,9.25,9.25,0,0,0,18,8.75ZM7.25,18A10.75,10.75,0,1,1,18,28.75,10.75,10.75,0,0,1,7.25,18Z" transform="translate(832 2034.099)" fill-rule="evenodd"/>
    <path id="Path_25190" data-name="Path 25190" d="M19.53,13.47l3.5,3.5a.75.75,0,0,1,.034,1.024l-3.5,4-1.128-.988,2.411-2.756H13v-1.5h7.69l-2.22-2.22Z" transform="translate(832 2034.099)" fill-rule="evenodd"/>
  </g>
</svg>
