<svg id="Group_3" data-name="Group 3" xmlns="http://www.w3.org/2000/svg" width="40.546" height="40.546" viewBox="0 0 40.546 40.546">
  <circle id="Ellipse_15" data-name="Ellipse 15" cx="20.273" cy="20.273" r="20.273" transform="translate(0 0)" fill="#fff"/>
  <g id="messages" transform="translate(7.832 9.268)">
    <path id="Path_12420" data-name="Path 12420" d="M11.75,24.524A2.052,2.052,0,0,0,13.8,26.576h2.052v3.078l2.822-3.078H27.91a2.052,2.052,0,0,0,2.052-2.052V15.8A2.052,2.052,0,0,0,27.91,13.75H13.8A2.052,2.052,0,0,0,11.75,15.8Z" transform="translate(-5.85 -5.798)" fill="#f3f3f1"/>
    <path id="Path_12421" data-name="Path 12421" d="M13.8,24.524V15.8a2.052,2.052,0,0,1,2.052-2.052H13.8A2.052,2.052,0,0,0,11.75,15.8v8.721A2.052,2.052,0,0,0,13.8,26.576h2.052A2.052,2.052,0,0,1,13.8,24.524Z" transform="translate(-5.85 -5.798)" fill="#d5dbe1"/>
    <path id="Path_12422" data-name="Path 12422" d="M17.8,27.089V26.25H15.75v3.078Z" transform="translate(-5.746 -5.473)" fill="#d5dbe1"/>
    <path id="Path_12423" data-name="Path 12423" d="M24.706,8.8v.257L16.241,13.9a1.071,1.071,0,0,1-1.026,0L6.75,9.059V8.8A2.058,2.058,0,0,1,8.8,6.75H22.654A2.058,2.058,0,0,1,24.706,8.8Z" transform="translate(-5.98 -5.98)" fill="#77cfed"/>
    <path id="Path_12424" data-name="Path 12424" d="M24.706,9v8.465a2.058,2.058,0,0,1-2.052,2.052H8.8A2.058,2.058,0,0,1,6.75,17.465V9l8.465,4.843a1.071,1.071,0,0,0,1.026,0Z" transform="translate(-5.98 -5.922)" fill="#f3f3f1"/>
    <path id="Path_12425" data-name="Path 12425" d="M9.059,8.8V8.546a2.051,2.051,0,0,1,1.081-1.8H8.8A2.058,2.058,0,0,0,6.75,8.8v.257L15.215,13.9a1.071,1.071,0,0,0,1.026,0l.866-.5Z" transform="translate(-5.98 -5.98)" fill="#1d5c96"/>
    <path id="Path_12426" data-name="Path 12426" d="M9.059,17.465V10.321L6.75,9v8.465A2.058,2.058,0,0,0,8.8,19.517h2.309A2.058,2.058,0,0,1,9.059,17.465Z" transform="translate(-5.98 -5.922)" fill="#d5dbe1"/>
    <path id="Path_12432" data-name="Path 12432" d="M15.738,14.76a1.8,1.8,0,0,1-.891-.235L6.378,9.685l.763-1.337,8.469,4.839a.256.256,0,0,0,.254,0l8.469-4.839L25.1,9.685l-8.469,4.839a1.783,1.783,0,0,1-.891.236Z" transform="translate(-5.99 -5.939)"/>
    <path id="Path_12433" data-name="Path 12433" d="M22.673,20.365H8.822A2.824,2.824,0,0,1,6,17.543V8.822A2.824,2.824,0,0,1,8.822,6H22.673a2.824,2.824,0,0,1,2.822,2.822v8.721A2.824,2.824,0,0,1,22.673,20.365ZM8.822,7.539A1.284,1.284,0,0,0,7.539,8.822v8.721a1.284,1.284,0,0,0,1.283,1.283H22.673a1.284,1.284,0,0,0,1.283-1.283V8.822a1.284,1.284,0,0,0-1.283-1.283Z" transform="translate(-6 -6)"/>
    <path id="Path_12434" data-name="Path 12434" d="M15.874,30.443a.769.769,0,0,1-.77-.77V27.365H13.822A2.824,2.824,0,0,1,11,24.543V21.978h1.539v2.565a1.284,1.284,0,0,0,1.283,1.283h2.052a.77.77,0,0,1,.77.77v1.1l1.485-1.62a.77.77,0,0,1,.567-.249H27.93a1.284,1.284,0,0,0,1.283-1.283V15.822a1.284,1.284,0,0,0-1.283-1.283h-.77V13h.77a2.824,2.824,0,0,1,2.822,2.822v8.721a2.824,2.824,0,0,1-2.822,2.822h-8.9l-2.593,2.829A.77.77,0,0,1,15.874,30.443Z" transform="translate(-5.87 -5.818)"/>
  </g>
</svg>
