<svg xmlns="http://www.w3.org/2000/svg" width="32.21" height="34.832" viewBox="0 0 32.21 34.832">
  <g id="svgexport-6_10_" data-name="svgexport-6 (10)" transform="translate(-2.29 -0.584)">
    <path id="Path_12879" data-name="Path 12879" d="M8.377,4.167c6.917,0,11.667-3.583,15-3.583S33.71,2.5,33.71,17.833,24.293,35.416,20.627,35.416C3.46,35.417-3.873,4.167,8.377,4.167Z" fill="#efefef"/>
    <path id="Path_12880" data-name="Path 12880" d="M33,6.045a1.5,1.5,0,1,1,1.5-1.5A1.5,1.5,0,0,1,33,6.045Zm0-2a.5.5,0,1,0,.5.5A.5.5,0,0,0,33,4.045Z" fill="#fcc71d"/>
    <path id="Path_12881" data-name="Path 12881" d="M27.094,26.25h1.219a.944.944,0,0,0,.938-.95V21.8a.962.962,0,0,0-.169-.545l-2.832-4.1a.933.933,0,0,0-.768-.405H22.189a.943.943,0,0,0-.937.95v8.55h5.842Zm-12.659,0H21.25V12.717a.97.97,0,0,0-.967-.967H7.717a.97.97,0,0,0-.967.967V25.284a.97.97,0,0,0,.967.967h6.718Z" fill="#f3f3f1"/>
    <circle id="Ellipse_19" data-name="Ellipse 19" cx="2.25" cy="2.25" r="2.25" transform="translate(22.5 24.75)" fill="#77cfed"/>
    <circle id="Ellipse_20" data-name="Ellipse 20" cx="2.25" cy="2.25" r="2.25" transform="translate(9.75 24.75)" fill="#77cfed"/>
    <path id="Path_12882" data-name="Path 12882" d="M9.7,26.25H7.72a.97.97,0,0,1-.97-.97V12.72a.971.971,0,0,1,.97-.97h2a.97.97,0,0,0-.97.97V25.28A.973.973,0,0,0,9.7,26.25Zm11.55-9.5h2v9.356h-2Z" fill="#d5dbe1"/>
    <path id="Path_12883" data-name="Path 12883" d="M25.75,29.01a2.11,2.11,0,0,1-1,.24,2.25,2.25,0,0,1,0-4.5,2.11,2.11,0,0,1,1,.24,2.241,2.241,0,0,0,0,4.02ZM13,29.01a2.11,2.11,0,0,1-1,.24,2.25,2.25,0,0,1,0-4.5,2.11,2.11,0,0,1,1,.24,2.241,2.241,0,0,0,0,4.02Z" fill="#1d5c96"/>
    <path id="Path_12884" data-name="Path 12884" d="M28.313,27H27.094V25.5h1.219a.194.194,0,0,0,.188-.2V21.8a.209.209,0,0,0-.037-.118l-2.831-4.1a.189.189,0,0,0-.153-.082H22.187a.194.194,0,0,0-.187.2V27h-.75a.75.75,0,0,1-.75-.75V17.7A1.7,1.7,0,0,1,22.188,16h3.293a1.684,1.684,0,0,1,1.385.729l2.832,4.1a1.7,1.7,0,0,1,.3.97v3.5A1.7,1.7,0,0,1,28.313,27Z"/>
    <path id="Path_12885" data-name="Path 12885" d="M21.25,27H14.435V25.5H20.5V12.717a.22.22,0,0,0-.217-.217H7.717a.22.22,0,0,0-.217.217V25.283a.22.22,0,0,0,.217.217H9.7V27H7.717A1.72,1.72,0,0,1,6,25.283V12.717A1.72,1.72,0,0,1,7.717,11H20.283A1.719,1.719,0,0,1,22,12.717V26.25A.75.75,0,0,1,21.25,27Z"/>
    <path id="Path_12886" data-name="Path 12886" d="M24.75,30a3,3,0,1,1,3-3A3,3,0,0,1,24.75,30Zm0-4.5a1.5,1.5,0,1,0,1.5,1.5A1.5,1.5,0,0,0,24.75,25.5ZM12,30a3,3,0,1,1,3-3A3,3,0,0,1,12,30Zm0-4.5A1.5,1.5,0,1,0,13.5,27,1.5,1.5,0,0,0,12,25.5ZM9.142,17.807l2.5-3.5,1.22.871-2.5,3.5Zm6,3,2.5-3.5,1.22.871-2.5,3.5Zm-4.013.014,4.5-6.5,1.232.854-4.5,6.5Z"/>
  </g>
</svg>
