<svg xmlns="http://www.w3.org/2000/svg" width="32" height="34.833" viewBox="0 0 32 34.833">
  <g id="svgexport-6_12_" data-name="svgexport-6 (12)" transform="translate(-2 -0.583)">
    <path id="Path_12896" data-name="Path 12896" d="M27.623,31.833c-6.917,0-11.667,3.583-15,3.583S2.29,33.5,2.29,18.167,11.707.583,15.373.583c17.167,0,24.5,31.25,12.25,31.25Z" fill="#efefef"/>
    <path id="Path_12897" data-name="Path 12897" d="M28.5,6A1.5,1.5,0,1,1,30,4.5,1.5,1.5,0,0,1,28.5,6Zm0-2a.5.5,0,1,0,.5.5A.5.5,0,0,0,28.5,4Z" fill="#fcc71d"/>
    <path id="Path_12898" data-name="Path 12898" d="M12.25,29.25H7.75v-8a.5.5,0,0,1,.5-.5h3.5a.5.5,0,0,1,.5.5Zm8,0h-4.5v-12a.5.5,0,0,1,.5-.5h3.5a.5.5,0,0,1,.5.5Z" fill="#f3f3f1"/>
    <path id="Path_12899" data-name="Path 12899" d="M28.25,29.25h-4.5v-16a.5.5,0,0,1,.5-.5h3.5a.5.5,0,0,1,.5.5Z" fill="#77cfed"/>
    <path id="Path_12900" data-name="Path 12900" d="M10.5,20.75H8.25a.5.5,0,0,0-.5.5v8H10v-8A.5.5,0,0,1,10.5,20.75Zm8-4H16.25a.5.5,0,0,0-.5.5v12H18v-12A.5.5,0,0,1,18.5,16.75Z" fill="#d5dbe1"/>
    <path id="Path_12901" data-name="Path 12901" d="M26.5,12.75H24.25a.5.5,0,0,0-.5.5v16H26v-16A.5.5,0,0,1,26.5,12.75Z" fill="#1d5c96"/>
    <path id="Path_12902" data-name="Path 12902" d="M8.218,15.719l8.5-8.5,1.06,1.06-8.5,8.5Z"/>
    <path id="Path_12903" data-name="Path 12903" d="M18,12H16.5V8.5H13V7h4.25a.75.75,0,0,1,.75.75ZM2,28.5H34V30H2Z"/>
    <path id="Path_12904" data-name="Path 12904" d="M12.25,30H7.75A.75.75,0,0,1,7,29.25v-8A1.252,1.252,0,0,1,8.25,20h3.5A1.252,1.252,0,0,1,13,21.25v8A.75.75,0,0,1,12.25,30ZM8.5,28.5h3v-7h-3ZM20.25,30h-4.5a.75.75,0,0,1-.75-.75v-12A1.252,1.252,0,0,1,16.25,16h3.5A1.252,1.252,0,0,1,21,17.25v12A.75.75,0,0,1,20.25,30ZM16.5,28.5h3v-11h-3ZM28.25,30h-4.5a.75.75,0,0,1-.75-.75v-16A1.252,1.252,0,0,1,24.25,12h3.5A1.252,1.252,0,0,1,29,13.25v16A.75.75,0,0,1,28.25,30ZM24.5,28.5h3v-15h-3Z"/>
  </g>
</svg>
