<svg xmlns="http://www.w3.org/2000/svg" width="31.585" height="34.833" viewBox="0 0 31.585 34.833">
  <g id="svgexport-6_9_" data-name="svgexport-6 (9)" transform="translate(-2.29 -0.583)">
    <path id="Path_12870" data-name="Path 12870" d="M8.377,31.833c6.917,0,11.667,3.583,15,3.583S33.71,33.5,33.71,18.167,24.293.583,20.627.583c-17.167,0-24.5,31.25-12.25,31.25Z" fill="#efefef"/>
    <path id="Path_12871" data-name="Path 12871" d="M29.625,2.25h1v2h-1Zm2.25,3h2v1h-2Z" fill="#fcc71d"/>
    <path id="Path_12872" data-name="Path 12872" d="M27.25,21.875H13.75l-2-9.5h17.5Z" fill="#f3f3f1"/>
    <circle id="Ellipse_16" data-name="Ellipse 16" cx="5.75" cy="5.75" r="5.75" transform="translate(17.75 6.375)" fill="#77cfed"/>
    <path id="Path_12873" data-name="Path 12873" d="M11.75,12.375l2,9.5H16l-2-9.5Z" fill="#d5dbe1"/>
    <path id="Path_12874" data-name="Path 12874" d="M20,12.125a5.75,5.75,0,0,1,4.624-5.638,5.75,5.75,0,1,0,0,11.276A5.75,5.75,0,0,1,20,12.125Z" fill="#1d5c96"/>
    <path id="Path_12875" data-name="Path 12875" d="M23.5,18.625a6.5,6.5,0,1,1,6.5-6.5A6.508,6.508,0,0,1,23.5,18.625Zm0-11.5a5,5,0,1,0,5,5A5.006,5.006,0,0,0,23.5,7.125Z"/>
    <path id="Path_12876" data-name="Path 12876" d="M22.5,14.875a.749.749,0,0,1-.53-.22l-2.28-2.28,1.061-1.061,1.711,1.71,3.214-3.708,1.133.982-3.741,4.317a.749.749,0,0,1-.54.258A.137.137,0,0,1,22.5,14.875Zm4.75,7.75H13.75a.751.751,0,0,1-.734-.6l-2-9.5a.75.75,0,0,1,.734-.9H15v1.5H12.675l1.684,8H26.642l.428-2.036,1.469.309-.554,2.631a.753.753,0,0,1-.735.6Z"/>
    <path id="Path_12877" data-name="Path 12877" d="M13.016,22.029l-2.506-11.9a1.254,1.254,0,0,0-1.217-.992L5.748,9.125l0-1.5L9.3,7.636A2.764,2.764,0,0,1,11.979,9.82l2.506,11.9Z"/>
    <path id="Path_12878" data-name="Path 12878" d="M28,25.625H12.25a2.25,2.25,0,0,1,0-4.5H14.5v1.5H12.25a.75.75,0,0,0,0,1.5H28Z"/>
    <circle id="Ellipse_17" data-name="Ellipse 17" cx="1.5" cy="1.5" r="1.5" transform="translate(15 26.625)"/>
    <circle id="Ellipse_18" data-name="Ellipse 18" cx="1.5" cy="1.5" r="1.5" transform="translate(23 26.625)"/>
  </g>
</svg>
