<svg id="svgexport-6_14_" data-name="svgexport-6 (14)" xmlns="http://www.w3.org/2000/svg" width="35.843" height="34.049" viewBox="0 0 35.843 34.049">
  <path id="Path_13079" data-name="Path 13079" d="M34.928,20.591c-3.693-5.848-3.2-11.778-4.979-14.6s-7.138-7.714-20.1.473-9.84,17.35-7.882,20.45c9.166,14.515,39.5,4.031,32.964-6.327Z" fill="#efefef"/>
  <path id="Path_13080" data-name="Path 13080" d="M18.75,19.75h6.5v6.5h-6.5Z" fill="#77cfed"/>
  <path id="Path_13081" data-name="Path 13081" d="M11.75,8.75h6.5v6.5h-6.5Z" fill="#f3f3f1"/>
  <path id="Path_13082" data-name="Path 13082" d="M10.75,20.75h5.5v5.5h-5.5Z" fill="#77cfed"/>
  <path id="Path_13083" data-name="Path 13083" d="M18.75,19.75H21v6.5H18.75Z" fill="#1d5c96"/>
  <path id="Path_13084" data-name="Path 13084" d="M11.75,8.75H14v6.5H11.75Z" fill="#d5dbe1"/>
  <path id="Path_13085" data-name="Path 13085" d="M10.75,20.75H13v5.5H10.75Z" fill="#1d5c96"/>
  <g id="Group_1964" data-name="Group 1964">
    <path id="Path_13086" data-name="Path 13086" d="M32.736,5.25a1.5,1.5,0,1,1,1.5-1.5A1.5,1.5,0,0,1,32.736,5.25Zm0-2a.5.5,0,1,0,.5.5A.5.5,0,0,0,32.736,3.25ZM3.5,0h1V2h-1Zm0,5.75h1v2h-1ZM0,3.25H2v1H0Zm5.75,0h2v1h-2Z" fill="#fff"/>
  </g>
  <path id="Path_13087" data-name="Path 13087" d="M6.75,25.5h22.5V27H6.75Zm0-11h22.5V16H6.75Z"/>
  <path id="Path_13088" data-name="Path 13088" d="M25.25,27h-6.5a.75.75,0,0,1-.75-.75v-6.5a.75.75,0,0,1,.75-.75h6.5a.75.75,0,0,1,.75.75v6.5A.75.75,0,0,1,25.25,27ZM19.5,25.5h5v-5h-5Z"/>
  <path id="Path_13089" data-name="Path 13089" d="M21.25,19.75h1.5v2.5h-1.5Zm-3-3.75h-6.5a.75.75,0,0,1-.75-.75V8.75A.75.75,0,0,1,11.75,8h6.5a.75.75,0,0,1,.75.75v6.5A.75.75,0,0,1,18.25,16ZM12.5,14.5h5v-5h-5Z"/>
  <path id="Path_13090" data-name="Path 13090" d="M14.25,8.75h1.5v2.5h-1.5Zm2,18.25h-5.5a.75.75,0,0,1-.75-.75v-5.5a.75.75,0,0,1,.75-.75h5.5a.75.75,0,0,1,.75.75v5.5A.75.75,0,0,1,16.25,27ZM11.5,25.5h4v-4h-4Z"/>
  <path id="Path_13091" data-name="Path 13091" d="M12.75,20.75h1.5v1.5h-1.5ZM6,6.75H7.5v22.5H6Zm22.5,0H30v22.5H28.5Z"/>
</svg>
