<svg xmlns="http://www.w3.org/2000/svg" width="31.42" height="34.832" viewBox="0 0 31.42 34.832">
  <g id="svgexport-6_13_" data-name="svgexport-6 (13)" transform="translate(-2.29 -0.584)">
    <path id="Path_13071" data-name="Path 13071" d="M27.623,4.167c-6.917,0-11.667-3.583-15-3.583S2.29,2.5,2.29,17.833s9.417,17.583,13.083,17.583c17.167,0,24.5-31.249,12.25-31.249Z" fill="#efefef"/>
    <path id="Path_13072" data-name="Path 13072" d="M29.5,6A1.5,1.5,0,1,1,31,4.5,1.5,1.5,0,0,1,29.5,6Zm0-2a.5.5,0,1,0,.5.5A.5.5,0,0,0,29.5,4Z" fill="#fcc71d"/>
    <path id="Path_13073" data-name="Path 13073" d="M17.25,21.25H8.75a2,2,0,0,1-2-2V9.75a2,2,0,0,1,2-2h16.5a2,2,0,0,1,2,2v9.5a2,2,0,0,1-2,2Z" fill="#f3f3f1"/>
    <g id="Group_1963" data-name="Group 1963">
      <path id="Path_13074" data-name="Path 13074" d="M6.75,10.75h20.5v3H6.75Z" fill="#77cfed"/>
      <circle id="Ellipse_37" data-name="Ellipse 37" cx="1.25" cy="1.25" r="1.25" transform="translate(20.75 19.75)" fill="#77cfed"/>
      <circle id="Ellipse_38" data-name="Ellipse 38" cx="1.25" cy="1.25" r="1.25" transform="translate(26.75 25.75)" fill="#77cfed"/>
    </g>
    <path id="Path_13075" data-name="Path 13075" d="M9,19.25V9.75a2,2,0,0,1,2-2H8.75a2,2,0,0,0-2,2v9.5a2,2,0,0,0,2,2H11A2,2,0,0,1,9,19.25Z" fill="#d5dbe1"/>
    <path id="Path_13076" data-name="Path 13076" d="M6.75,10.75H9v3H6.75ZM23,21a1.223,1.223,0,0,1,.125-.526,1.25,1.25,0,1,0,0,1.052A1.223,1.223,0,0,1,23,21Zm6,6a1.223,1.223,0,0,1,.125-.526,1.25,1.25,0,1,0,0,1.052A1.223,1.223,0,0,1,29,27Z" fill="#1d5c96"/>
    <path id="Path_13077" data-name="Path 13077" d="M17.25,22H8.75A2.752,2.752,0,0,1,6,19.25V9.75A2.752,2.752,0,0,1,8.75,7h16.5A2.752,2.752,0,0,1,28,9.75v6.5H26.5V9.75A1.252,1.252,0,0,0,25.25,8.5H8.75A1.252,1.252,0,0,0,7.5,9.75v9.5A1.252,1.252,0,0,0,8.75,20.5h8.5Z"/>
    <path id="Path_13078" data-name="Path 13078" d="M6.75,10h20.5v1.5H6.75Zm0,3h20.5v1.5H6.75ZM22,23a2,2,0,1,1,2-2A2,2,0,0,1,22,23Zm0-2.5a.5.5,0,1,0,.5.5A.5.5,0,0,0,22,20.5ZM28,29a2,2,0,1,1,2-2A2,2,0,0,1,28,29Zm0-2.5a.5.5,0,1,0,.5.5A.5.5,0,0,0,28,26.5Zm-6.843,1.313,6.5-8.5,1.191.912-6.5,8.5Z"/>
  </g>
</svg>
