<svg xmlns="http://www.w3.org/2000/svg" width="32" height="34.832" viewBox="0 0 32 34.832">
  <g id="svgexport-6_11_" data-name="svgexport-6 (11)" transform="translate(-2 -0.584)">
    <path id="Path_12887" data-name="Path 12887" d="M8.377,4.167c6.917,0,11.667-3.583,15-3.583S33.71,2.5,33.71,17.833,24.293,35.416,20.627,35.416C3.46,35.417-3.873,4.167,8.377,4.167Z" fill="#efefef"/>
    <path id="Path_12888" data-name="Path 12888" d="M31.5,6A1.5,1.5,0,1,1,33,4.5,1.5,1.5,0,0,1,31.5,6Zm0-2a.5.5,0,1,0,.5.5A.5.5,0,0,0,31.5,4Z" fill="#fcc71d"/>
    <path id="Path_12889" data-name="Path 12889" d="M27.25,28.25H8.75a2,2,0,0,1-2-2v-15h22.5v15A2,2,0,0,1,27.25,28.25Z" fill="#f3f3f1"/>
    <path id="Path_12890" data-name="Path 12890" d="M29.25,11.25H6.75V9.75a2,2,0,0,1,2-2h18.5a2,2,0,0,1,2,2Z" fill="#77cfed"/>
    <path id="Path_12891" data-name="Path 12891" d="M11,7.75H8.75a2,2,0,0,0-2,2v1.5H9V9.75A2,2,0,0,1,11,7.75Z" fill="#1d5c96"/>
    <path id="Path_12892" data-name="Path 12892" d="M9,26.25v-15H6.75v15a2,2,0,0,0,2,2H11A2,2,0,0,1,9,26.25Z" fill="#d5dbe1"/>
    <path id="Path_12893" data-name="Path 12893" d="M10,15h4v1.5H10Zm7,0h9v1.5H17Zm-7,4h4v1.5H10Zm7,0h9v1.5H17Zm-7,4h4v1.5H10Zm7,0h9v1.5H17Z"/>
    <path id="Path_12894" data-name="Path 12894" d="M27.25,29H8.75A2.752,2.752,0,0,1,6,26.25V9.75A2.752,2.752,0,0,1,8.75,7h18.5A2.752,2.752,0,0,1,30,9.75v16.5A2.752,2.752,0,0,1,27.25,29ZM8.75,8.5A1.252,1.252,0,0,0,7.5,9.75v16.5A1.252,1.252,0,0,0,8.75,27.5h18.5a1.252,1.252,0,0,0,1.25-1.25V9.75A1.252,1.252,0,0,0,27.25,8.5Z"/>
    <path id="Path_12895" data-name="Path 12895" d="M6.75,10.5h22.5V12H6.75ZM2,27.5H34V29H2Z"/>
  </g>
</svg>
