<svg xmlns="http://www.w3.org/2000/svg" width="40.546" height="40.546" viewBox="0 0 40.546 40.546">
  <g id="Group_15756" data-name="Group 15756" transform="translate(-1351 -4557)">
    <circle id="Ellipse_13" data-name="Ellipse 13" cx="20.273" cy="20.273" r="20.273" transform="translate(1351 4557)" fill="#fff"/>
    <g id="Group_15755" data-name="Group 15755" transform="translate(-40.575 -1.443)">
      <path id="Path_25195" data-name="Path 25195" d="M24.425,14.145c0,6.091-7.338,12.616-7.338,12.616S9.75,20.236,9.75,14.145a7.338,7.338,0,1,1,14.675,0Z" transform="translate(1394.761 4561.96)" fill="#77cfed"/>
      <circle id="Ellipse_1150" data-name="Ellipse 1150" cx="3.78" cy="3.78" r="3.78" transform="translate(1408.068 4572.268)" fill="#f3f3f1"/>
      <path id="Path_25196" data-name="Path 25196" d="M11.751,14.145a7.371,7.371,0,0,1,6.337-7.319,7.278,7.278,0,0,0-1-.076,7.367,7.367,0,0,0-7.338,7.4c0,6.091,7.338,12.616,7.338,12.616s.4-.359,1-.968C16.085,23.763,11.751,18.832,11.751,14.145Z" transform="translate(1394.761 4561.96)" fill="#1d5c96"/>
      <path id="Path_25197" data-name="Path 25197" d="M15.751,14.53A3.769,3.769,0,0,1,18.531,10.9a3.78,3.78,0,1,0,0,7.258A3.769,3.769,0,0,1,15.751,14.53Z" transform="translate(1394.318 4561.518)" fill="#d5dbe1"/>
      <path id="Path_25199" data-name="Path 25199" d="M17,27.346a.67.67,0,0,1-.444-.168C16.252,26.9,9,20.38,9,14.062a8,8,0,1,1,16.009,0c0,6.317-7.252,12.84-7.561,13.114a.666.666,0,0,1-.444.169ZM17,7.334a6.707,6.707,0,0,0-6.671,6.728c0,4.872,5.114,10.194,6.671,11.7,1.556-1.506,6.671-6.829,6.671-11.7A6.707,6.707,0,0,0,17,7.334Z" transform="translate(1394.844 4562.043)"/>
      <path id="Path_25200" data-name="Path 25200" d="M17.447,18.894a4.447,4.447,0,1,1,4.447-4.447A4.452,4.452,0,0,1,17.447,18.894Zm0-7.56a3.113,3.113,0,1,0,3.113,3.113A3.116,3.116,0,0,0,17.447,11.334Z" transform="translate(1394.401 4561.601)"/>
    </g>
  </g>
</svg>
