<svg id="Group_4" data-name="Group 4" xmlns="http://www.w3.org/2000/svg" width="40.546" height="40.546" viewBox="0 0 40.546 40.546">
  <circle id="Ellipse_13" data-name="Ellipse 13" cx="20.273" cy="20.273" r="20.273" transform="translate(0 0)" fill="#fff"/>
  <g id="smartphone" transform="translate(12.425 7.848)">
    <path id="Path_12463" data-name="Path 12463" d="M6.75,34a2.126,2.126,0,0,0,2.125,2.125h9.21A2.126,2.126,0,0,0,20.211,34V14.875a2.126,2.126,0,0,0-2.125-2.125H8.875A2.126,2.126,0,0,0,6.75,14.875Z" transform="translate(-5.687 -11.687)" fill="#f3f3f1"/>
    <path id="Path_12464" data-name="Path 12464" d="M17.46,12.75a1.417,1.417,0,0,0-1.417,1.417,1.417,1.417,0,0,1-1.417,1.417H11.084a1.417,1.417,0,0,1-1.417-1.417A1.417,1.417,0,0,0,8.25,12.75Z" transform="translate(-5.062 -11.687)" fill="#77cfed"/>
    <path id="Path_12466" data-name="Path 12466" d="M12.855,14.167a1.417,1.417,0,0,0-1.417-1.417H8.25a1.417,1.417,0,0,1,1.417,1.417,1.417,1.417,0,0,0,1.417,1.417h3.188A1.417,1.417,0,0,1,12.855,14.167Z" transform="translate(-5.062 -11.687)" fill="#1d5c96"/>
    <path id="Path_12467" data-name="Path 12467" d="M9.938,34V14.875a2.126,2.126,0,0,1,2.125-2.125H8.875A2.126,2.126,0,0,0,6.75,14.875V34a2.126,2.126,0,0,0,2.125,2.125h3.188A2.126,2.126,0,0,1,9.938,34Z" transform="translate(-5.687 -11.687)" fill="#d5dbe1"/>
    <path id="Path_12469" data-name="Path 12469" d="M14.626,16.959H11.084A2.482,2.482,0,0,1,8.6,14.48a.354.354,0,0,0-.354-.354V12a2.482,2.482,0,0,1,2.48,2.48.354.354,0,0,0,.354.354h3.542a.354.354,0,0,0,.354-.354A2.482,2.482,0,0,1,17.46,12v2.125a.354.354,0,0,0-.354.354A2.482,2.482,0,0,1,14.626,16.959Z" transform="translate(-5.062 -12)"/>
    <path id="Path_12470" data-name="Path 12470" d="M18.4,37.5H9.188A3.192,3.192,0,0,1,6,34.316V15.188A3.192,3.192,0,0,1,9.188,12H18.4a3.192,3.192,0,0,1,3.188,3.188V34.316A3.192,3.192,0,0,1,18.4,37.5ZM9.188,14.125a1.064,1.064,0,0,0-1.063,1.063V34.316a1.064,1.064,0,0,0,1.063,1.063H18.4a1.064,1.064,0,0,0,1.063-1.063V15.188A1.064,1.064,0,0,0,18.4,14.125Z" transform="translate(-6 -12)"/>
  </g>
</svg>
